<svg id="eMn46bXJZWH1" xmlns="http://www.w3.org/2000/svg" xmlns:xlink="http://www.w3.org/1999/xlink" viewBox="0 0 70 70" shape-rendering="geometricPrecision" text-rendering="geometricPrecision"><rect width="45.872781" height="70.000014" rx="0" ry="0" transform="matrix(1 0 0 0.883285 12.436397 4.085021)" fill="none" stroke="#fff" stroke-linejoin="round"/><rect width="18.59764" height="26.638314" rx="0" ry="0" transform="translate(16.775148 8.361686)" fill="none" stroke="#fff" stroke-linecap="round"/><rect width="18.59764" height="26.638314" rx="0" ry="0" transform="matrix(.537414 0 0 0.74756 44.205928 42.413783)" fill="none" stroke="#fff" stroke-linecap="round"/><line x1="-7.16283" y1="0" x2="7.16283" y2="0" transform="translate(47.03773 8.361686)" fill="none" stroke="#fff" stroke-width="0.7"/><line x1="-7.16283" y1="0" x2="7.16283" y2="0" transform="translate(47.03773 14.59458)" fill="none" stroke="#fff" stroke-width="0.7"/><line x1="-7.16283" y1="0" x2="7.16283" y2="0" transform="translate(47.03773 21.680843)" fill="none" stroke="#fff" stroke-width="0.7"/><line x1="-7.16283" y1="0" x2="7.16283" y2="0" transform="translate(47.03773 28.597246)" fill="none" stroke="#fff" stroke-width="0.7"/><line x1="-7.16283" y1="0" x2="7.16283" y2="0" transform="translate(47.03773 35.000002)" fill="none" stroke="#fff" stroke-width="0.7"/><line x1="-7.16283" y1="0" x2="7.16283" y2="0" transform="matrix(1.544365 0 0-1 27.837172 42.413783)" fill="none" stroke="#fff" stroke-width="0.7"/><line x1="-7.16283" y1="0" x2="7.16283" y2="0" transform="matrix(1.544365 0 0-1 27.837172 47.347194)" fill="none" stroke="#fff" stroke-width="0.7"/><line x1="-7.16283" y1="0" x2="7.16283" y2="0" transform="matrix(1.544365 0 0-1 27.837172 57.846505)" fill="none" stroke="#fff" stroke-width="0.7"/><line x1="-7.16283" y1="0" x2="7.16283" y2="0" transform="matrix(1.544365 0 0-1 27.837172 52.370652)" fill="none" stroke="#fff" stroke-width="0.7"/><line x1="-7.16283" y1="0" x2="7.16283" y2="0" transform="matrix(1.544365 0 0-1 27.837172 62.327521)" fill="none" stroke="#fff" stroke-width="0.7"/></svg>
