<svg xmlns:dc="http://purl.org/dc/elements/1.1/" xmlns:cc="http://creativecommons.org/ns#" xmlns:rdf="http://www.w3.org/1999/02/22-rdf-syntax-ns#" xmlns:svg="http://www.w3.org/2000/svg" xmlns="http://www.w3.org/2000/svg" xmlns:sodipodi="http://sodipodi.sourceforge.net/DTD/sodipodi-0.dtd" xmlns:inkscape="http://www.inkscape.org/namespaces/inkscape" version="1.1" x="0px" y="0px" viewBox="0 0 100 125"><g transform="translate(0,-952.36218)"><path style="font-size:medium;font-style:normal;font-variant:normal;font-weight:normal;font-stretch:normal;text-indent:0;text-align:start;text-decoration:none;line-height:normal;letter-spacing:normal;word-spacing:normal;text-transform:none;direction:ltr;block-progression:tb;writing-mode:lr-tb;text-anchor:start;baseline-shift:baseline;opacity:1;color:#000000;fill:#000000;fill-opacity:1;stroke:none;stroke-width:6;marker:none;visibility:visible;display:inline;overflow:visible;enable-background:accumulate;font-family:Sans;-inkscape-font-specification:Sans" d="M 64 5 C 61.537012 5 59.812412 6.578 58.59375 8.125 C 57.375088 9.672 56.363003 11.47442 55.3125 13.4375 C 53.246568 17.29811 50.951226 21.66647 48 24.6875 C 41.110198 28.72759 36.016922 33.81704 31.96875 39.71875 C 24.807119 44.39601 21.823735 45 13 45 A 3.0003 3.0003 0 0 0 10 48 L 10 82 A 3.0003 3.0003 0 0 0 13 85 C 19.636887 85.01 26.60691 87.34385 33.90625 89.84375 C 41.20559 92.34355 48.834133 95 57 95 L 65 95 C 68.928571 95 72.516875 94.1829 75.34375 92.1875 C 77.551876 90.6288 79.096105 88.20865 79.6875 85.40625 C 81.421258 84.72455 82.90231 83.5115 83.875 82 C 85.324103 79.7481 86 76.9731 86 74 C 86 72.5526 85.786355 71.26625 85.53125 70.21875 C 85.52915 70.20875 85.53335 70.1955 85.53125 70.1875 C 87.968693 68.2879 90 65.568 90 62 C 90 59.7504 89.356083 57.76305 88.34375 56.28125 C 88.023447 55.81245 87.626953 55.5706 87.28125 55.1875 C 89.020865 53.1438 89.963135 50.59325 90 48.03125 A 3.0003 3.0003 0 0 0 90 48 C 90 44.44547 88.917709 41.25633 86.6875 39.09375 C 84.457291 36.93097 81.337503 36 78 36 L 65.09375 36 C 68.483245 30.26854 72 24.05748 72 16 C 72.0034 13.26217 71.592404 10.76085 70.34375 8.65625 C 69.095096 6.55165 66.635811 5 64 5 z M 64.09375 11 C 64.706317 11.003669 64.794274 11.056012 65.1875 11.71875 C 65.602865 12.41884 66.002564 13.92535 66 15.96875 A 3.0003 3.0003 0 0 0 66 16 C 66 23.88889 61.513111 30.31299 57.40625 37.5 A 3.0003 3.0003 0 0 0 60 42 L 78 42 C 80.251663 42 81.627501 42.56021 82.5 43.40625 C 83.363297 44.24337 83.987101 45.57448 84 47.9375 C 84.000069 47.9505 83.999966 47.95675 84 47.96875 C 83.96868 49.00825 82.514168 51.8154 81.53125 52.375 A 3.0003 3.0003 0 0 0 80.96875 57.1875 C 82.185625 58.319 83.007706 59.07295 83.40625 59.65625 C 83.804794 60.23965 84 60.6746 84 62 C 84 63.4395 82.568247 65.24285 80.5625 66.34375 A 3.0003 3.0003 0 0 0 79.21875 70.125 C 79.396333 70.5593 80 72.3395 80 74 C 80 76.0269 79.486063 77.7519 78.84375 78.75 C 78.201437 79.7481 77.716555 80 77 80 A 3.0003 3.0003 0 0 0 74 83 C 74 85.1667 73.329375 86.27675 71.90625 87.28125 C 70.483125 88.28585 68.071429 89 65 89 L 57 89 C 50.165867 89 43.135177 86.65345 35.84375 84.15625 C 29.478139 81.97625 22.885608 79.77355 16 79.21875 L 16 50.875 C 23.505677 50.5906 28.578522 49.1743 35.65625 44.5 A 3.0003 3.0003 0 0 0 36.5 43.65625 C 40.286654 37.97627 44.900728 33.36476 51.5 29.59375 A 3.0003 3.0003 0 0 0 52.125 29.09375 C 56.100325 25.11842 58.578746 20.10509 60.625 16.28125 C 61.648127 14.36933 62.555134 12.73425 63.28125 11.8125 C 63.825837 11.121188 64.097997 11.01248 64.09375 11 z " transform="translate(0,952.36218)"/></g><text x="0" y="115" fill="#000000" font-size="5px" font-weight="bold" font-family="'Helvetica Neue', Helvetica, Arial-Unicode, Arial, Sans-serif">Created by creative outlet</text><text x="0" y="120" fill="#000000" font-size="5px" font-weight="bold" font-family="'Helvetica Neue', Helvetica, Arial-Unicode, Arial, Sans-serif">from the Noun Project</text></svg>